<svg width="193" height="136" viewBox="0 0 193 136" fill="none" xmlns="http://www.w3.org/2000/svg">
<path d="M36.9482 111.946C43.1955 70.9154 76.5195 37.8333 111.242 37.8849C111.445 38.9326 112.382 39.9041 112.053 40.9193C106.457 58.1775 114.293 71.7148 126.389 83.5837C135.7 92.9528 146.148 100.59 158.999 104.481C162.677 105.482 165.808 106.887 169.8 107.131C184.421 108.283 192.776 99.8866 192.046 85.6065C191.565 76.0005 186.553 68.3801 180.591 61.0275C170.421 48.2411 157.136 38.4243 141.516 31.7754C138.385 30.5488 135.265 28.9666 130.835 27.1429C145.996 10.7281 166.639 7.24719 186.273 0.682371C182.813 0.470928 179.834 -0.228786 176.343 0.0754972C158.276 2.8537 140.789 8.84016 127.227 20.9526C123.28 24.335 119.81 26.469 113.955 26.1112C91.3184 24.9865 72.6694 33.1508 56.7736 48.4853C44.8556 59.9217 35.673 73.4543 29.4049 88.6008C27.8379 92.3874 26.3653 96.1326 23.5919 102.175C16.3016 90.341 9.94514 80.3326 3.62475 70.1109C2.81062 70.32 2.39237 70.7717 1.57824 70.9808C1.18604 73.0274 -0.526858 76.005 0.161199 77.8589C3.35111 86.8539 6.76371 95.59 10.5016 104.36C14.0207 112.34 18.4977 119.968 22.0168 127.947C25.5516 135.669 29.309 137.59 34.7436 131.71C44.1719 121.675 52.8898 111.374 61.567 100.516C62.726 99.0339 62.1153 95.9142 61.9911 93.5772C59.2983 93.9303 55.6175 93.6246 53.9262 95.0742C47.9908 100.406 43.2127 105.599 36.9482 111.946ZM122.225 37.5612C148.037 43.5388 167.771 56.6302 179.44 79.8613C181.802 84.9233 183.558 91.1549 178.532 94.7301C175.18 97.1136 168.941 97.6465 164.448 96.8542C147.308 93.2184 134.663 82.8424 124.258 69.524C117.092 60.0271 114.784 50.0477 122.225 37.5612Z" fill="#FFAA00"/>
</svg>
