<svg width="72" height="48" viewBox="0 0 72 48" fill="none" xmlns="http://www.w3.org/2000/svg">
<path d="M68.0548 20C67.9762 17.0125 65.0474 14.0402 59.1781 12C59.5792 11.1801 59.1781 10.9117 59.1781 10C59.1781 6.46642 56.1058 3 52.274 3C51.4104 3 51.1069 3.70878 50.3014 4C49.0113 2.54553 46.6486 2 44.3836 2C43.357 2 42.3521 1.65252 41.4247 2C39.8112 0.663013 37.803 0 35.5068 0C32.4118 0 29.1546 1.81499 27.6164 4C23.9778 3.60205 20.9678 4.39387 19.726 7C16.6751 7.0546 14.1913 9.30451 13.8082 12C7.4494 14.0667 4.02788 16.8776 3.94521 20L0 35V36C0 42.9729 16.3059 48 36.4931 48C56.6796 48 72 42.972 72 36L68.0548 20ZM19.726 9C19.6745 8.99669 19.7776 9 19.726 9H20.7123V8C21.4933 5.9275 23.8044 5 26.6301 5C27.028 5 27.2039 4.93878 27.6164 5H28.6027C29.8503 2.98294 32.6843 1 35.5068 1C37.6393 1 39.0361 1.71017 40.4384 3L41.4247 4V3C42.2915 2.62273 43.3873 3 44.3836 3C46.4505 3 48.309 3.63654 49.3151 5H50.3014C51.0815 4.65996 51.4218 5 52.274 5C55.4092 5 58.1918 7.17297 58.1918 10C58.1918 10.9275 57.7294 11.2082 57.2055 12C57.2038 12.0017 57.2071 12.9975 57.2055 13C57.1654 13.0596 57.2472 12.9413 57.2055 13V14H58.1918C60.668 14.3425 62.137 15.6945 62.137 17C62.137 17.7851 61.6623 17.6467 61.1507 18C61.0688 18.0563 61.2227 17.9562 61.1507 18L59.1781 19L61.1507 20C62.2631 20.5171 62.137 21.1131 62.137 22C62.137 23.3221 59.6211 25 57.2055 25C56.1037 25.3773 55.4106 25.6922 54.2466 26C49.3015 27.3022 43.4339 28 37.4795 28C27.2937 28 18.7531 25.7512 15.7808 25C15.0957 24.8271 14.8133 25.0058 14.7945 25C12.0883 25 9.86301 22.4258 9.86301 20C9.86301 17.5742 12.0883 16 14.7945 16C14.6308 15.9843 14.964 16 14.7945 16H15.7808V15C15.4632 14.4151 14.7945 13.6387 14.7945 13C14.7921 13.0372 14.7945 12.9619 14.7945 13C15.0466 10.8423 17.2203 9 19.726 9ZM13.8082 14C13.8041 13.9727 13.8115 14.0265 13.8082 14C13.8017 13.9578 13.8139 14.0422 13.8082 14C13.8451 14.2209 13.7419 13.7849 13.8082 14C13.809 14.0025 13.8074 13.9975 13.8082 14C10.5928 14.1928 7.89041 16.9934 7.89041 20C7.89041 23.1034 11.4317 25.957 14.7945 26C14.9484 26.043 15.2512 25.866 15.7808 26C18.8186 26.7678 27.1652 29 37.4795 29C37.4778 29 37.4811 29 37.4795 29C44.9286 29 51.3149 28.0047 57.2055 26C60.1221 25.9595 64.1096 24.2611 64.1096 22C64.1096 21.722 64.1816 21.2647 64.1096 21C63.8951 20.2066 62.9114 19.5568 62.137 19C62.9048 18.31 63.1233 17.8679 63.1233 17C63.1233 16.938 63.1282 16.062 63.1233 16C63.12 15.9479 63.1298 16.0496 63.1233 16C63.1151 15.9396 63.1347 16.0587 63.1233 16C63.1118 15.9437 63.138 16.0563 63.1233 16C63.12 15.9868 63.1266 16.0141 63.1233 16C65.4931 17.4172 67.0685 18.428 67.0685 20C67.0685 24.7696 53.9874 30 35.5068 30C17.0263 30 4.93151 24.7696 4.93151 20C4.93151 17.5296 8.26799 15.8648 13.8082 14ZM35.5068 47C16.7595 47 1.12137 42.0148 0.986301 36L4.93151 23C7.96439 28.0882 19.8055 32 35.5068 32C51.2066 32 64.0372 28.0898 67.0685 23L71.0137 36C70.8786 42.0156 54.2542 47 35.5068 47Z" fill="#839AA9"/>
</svg>
